M48
; DRILL file {KiCad 5.1.6} date Sun Sep 20 16:31:43 2020
; FORMAT={-:-/ absolute / inch / decimal}
; #@! TF.CreationDate,2020-09-20T16:31:43+01:00
; #@! TF.GenerationSoftware,Kicad,Pcbnew,5.1.6
; #@! TF.FileFunction,Plated,1,2,PTH
FMAT,2
INCH
T1C0.0157
T2C0.0315
T3C0.0335
T4C0.0354
T5C0.0433
T6C0.0512
T7C0.0827
%
G90
G05
T1
X3.7Y-2.25
X4.09Y-2.34
X4.27Y-1.72
X4.7615Y-3.9015
X4.77Y-4.34
X4.87Y-3.22
X4.98Y-4.52
X4.99Y-2.26
X5.08Y-4.45
X5.1Y-3.09
X5.13Y-3.56
X5.19Y-3.22
X5.23Y-3.47
X5.31Y-3.27
X5.44Y-3.22
X5.57Y-2.26
X5.6Y-3.55
X5.66Y-3.01
X5.7Y-4.05
X5.73Y-2.86
X5.75Y-4.57
X5.81Y-2.08
X5.85Y-4.53
X5.88Y-4.18
X6.23Y-2.05
X6.31Y-1.89
X6.31Y-2.44
X6.33Y-2.39
X6.48Y-3.08
X6.6Y-3.6547
X6.61Y-2.09
X6.62Y-3.61
X6.78Y-1.99
X6.83Y-1.72
X6.91Y-4.06
X7.04Y-3.49
X7.09Y-3.64
X7.09Y-3.78
X7.13Y-3.98
X7.64Y-2.98
X7.75Y-4.09
X7.8Y-2.98
T2
X6.17Y-2.73
X6.2487Y-2.73
X3.98Y-4.39
X4.28Y-4.39
X6.68Y-2.1
X6.98Y-2.1
X3.3Y-1.77
X3.3Y-1.9669
X7.1Y-2.8
X7.4Y-2.8
X6.6Y-2.65
X6.6Y-2.75
X6.6Y-2.85
X6.6Y-2.95
X6.6Y-3.05
X6.6Y-3.15
X6.6Y-3.25
X6.9Y-2.65
X6.9Y-2.75
X6.9Y-2.85
X6.9Y-2.95
X6.9Y-3.05
X6.9Y-3.15
X6.9Y-3.25
X5.1331Y-3.17
X5.33Y-3.17
X6.68Y-2.23
X6.98Y-2.23
X7.2Y-4.38
X7.5Y-4.38
X5.75Y-3.05
X5.75Y-3.1878
X6.2Y-4.37
X6.5Y-4.37
X5.46Y-4.47
X5.76Y-4.47
X2.73Y-2.68
X2.73Y-2.98
X7.2728Y-4.2559
X7.4106Y-4.2559
X4.47Y-4.27
X4.77Y-4.27
X5.53Y-2.76
X5.53Y-2.8387
X7.49Y-4.54
X7.79Y-4.54
X7.5222Y-3.17
X7.66Y-3.17
X5.09Y-3.3
X5.39Y-3.3
X4.47Y-4.13
X4.77Y-4.13
X3.3Y-2.08
X3.3Y-2.38
X5.12Y-2.31
X5.12Y-2.61
X5.26Y-1.89
X5.26Y-2.19
X7.1Y-2.93
X7.4Y-2.93
X5.46Y-4.21
X5.76Y-4.21
X3.33Y-2.68
X3.33Y-2.98
X2.95Y-4.2432
X3.0878Y-4.2432
X3.17Y-1.68
X3.17Y-1.98
X6.275Y-4.2465
X6.4128Y-4.2465
X3.9213Y-2.72
X4.0Y-2.72
X4.41Y-3.46
X4.41Y-3.76
X5.05Y-3.48
X5.05Y-3.58
X5.05Y-3.68
X5.05Y-3.78
X5.05Y-3.88
X5.05Y-3.98
X5.05Y-4.08
X5.35Y-3.48
X5.35Y-3.58
X5.35Y-3.68
X5.35Y-3.78
X5.35Y-3.88
X5.35Y-3.98
X5.35Y-4.08
X5.11Y-2.99
X5.41Y-2.99
X2.6Y-4.5
X2.9Y-4.5
X7.5Y-2.67
X7.8Y-2.67
X5.58Y-1.87
X5.58Y-2.17
X7.1Y-3.38
X7.4Y-3.38
X2.96Y-4.38
X3.26Y-4.38
X4.8822Y-2.79
X5.02Y-2.79
X4.46Y-4.52
X4.76Y-4.52
X4.16Y-4.52
X4.3569Y-4.52
X3.66Y-3.26
X3.96Y-3.26
X4.2631Y-3.87
X4.46Y-3.87
X2.86Y-3.26
X3.16Y-3.26
X4.53Y-4.0
X4.7269Y-4.0
X7.29Y-2.05
X7.29Y-2.15
X7.29Y-2.25
X7.29Y-2.35
X7.59Y-2.05
X7.59Y-2.15
X7.59Y-2.25
X7.59Y-2.35
X2.58Y-2.6931
X2.58Y-2.89
X5.46Y-4.34
X5.76Y-4.34
X6.68Y-2.36
X6.98Y-2.36
X2.88Y-2.68
X2.88Y-2.98
X6.84Y-1.89
X6.9187Y-1.89
X7.5Y-2.81
X7.8Y-2.81
X5.51Y-3.5631
X5.51Y-3.76
X3.03Y-2.68
X3.03Y-2.98
X5.92Y-1.88
X5.92Y-2.18
X6.03Y-2.72
X6.03Y-3.02
X4.27Y-3.46
X4.27Y-3.76
X4.5231Y-4.39
X4.72Y-4.39
X3.17Y-2.07
X3.17Y-2.37
X6.48Y-3.38
X6.78Y-3.38
X2.91Y-2.05
X2.91Y-2.35
X6.39Y-2.69
X6.39Y-2.99
X5.51Y-3.87
X5.51Y-4.0669
X5.51Y-3.16
X5.51Y-3.46
X5.96Y-3.33
X6.26Y-3.33
X7.1Y-2.67
X7.4Y-2.67
X4.3013Y-2.7
X4.38Y-2.7
X4.3113Y-3.0
X4.39Y-3.0
X5.26Y-2.76
X5.26Y-2.8387
X3.26Y-3.26
X3.56Y-3.26
X5.26Y-2.31
X5.26Y-2.61
X3.83Y-1.88
X3.83Y-1.98
X3.83Y-2.08
X3.83Y-2.18
X4.13Y-1.88
X4.13Y-1.98
X4.13Y-2.08
X4.13Y-2.18
X3.995Y-4.25
X4.1328Y-4.25
X3.18Y-2.68
X3.18Y-2.98
X6.17Y-2.97
X6.2487Y-2.97
T3
X7.505Y-4.67
X5.185Y-4.67
X3.105Y-4.67
X7.025Y-1.625
X7.635Y-4.67
X4.32Y-1.625
X5.575Y-4.67
X2.915Y-1.63
X5.71Y-4.67
X5.315Y-4.67
X3.045Y-1.63
X6.725Y-4.67
X3.235Y-4.67
X6.4Y-1.623
X7.765Y-4.67
X4.665Y-4.67
X6.855Y-4.67
X4.795Y-4.67
X5.115Y-1.625
X3.425Y-1.63
X3.555Y-1.63
X4.45Y-1.625
X4.925Y-4.67
X7.375Y-4.67
X7.245Y-4.67
X2.5855Y-4.67
X6.985Y-4.67
X6.53Y-1.623
X5.445Y-4.67
X2.715Y-4.67
X2.975Y-4.67
X7.155Y-1.625
X7.115Y-4.67
X5.245Y-1.625
X2.845Y-4.67
X5.055Y-4.67
T4
X7.2986Y-3.7756
X7.3986Y-3.7756
X2.97Y-3.78
X3.07Y-3.78
X4.0162Y-3.5227
X4.1162Y-3.5227
X6.8015Y-4.3288
X6.9015Y-4.3288
X7.0015Y-4.3288
X6.2979Y-3.5226
X6.3979Y-3.5226
X6.2979Y-3.7801
X6.3979Y-3.7801
X3.3919Y-4.3146
X3.4919Y-4.3146
X3.5919Y-4.3146
X5.1437Y-4.3147
X5.2437Y-4.3147
X4.0165Y-3.7787
X4.1165Y-3.7787
T5
X5.98Y-3.78
X5.98Y-4.18
X5.11Y-1.79
X5.11Y-2.19
X6.12Y-3.78
X6.12Y-4.18
T6
X5.403Y-2.4864
X5.5998Y-2.4864
X5.7967Y-2.4864
X6.2086Y-2.4864
X6.4054Y-2.4864
X6.6023Y-2.4864
X2.9853Y-2.486
X3.1822Y-2.486
X3.379Y-2.486
X7.0147Y-2.4865
X7.2115Y-2.4865
X7.4084Y-2.4865
X4.5972Y-2.4862
X4.794Y-2.4862
X4.9909Y-2.4862
X3.7912Y-2.486
X3.988Y-2.486
X4.1849Y-2.486
T7
X5.7678Y-3.4863
X5.7678Y-3.6438
X5.7678Y-3.8013
X3.4855Y-3.4865
X3.4855Y-3.644
X3.4855Y-3.8015
X6.91Y-3.4865
X6.91Y-3.644
X6.91Y-3.8015
X4.627Y-3.4865
X4.627Y-3.644
X4.627Y-3.8015
T0
M30
