G04 #@! TF.GenerationSoftware,KiCad,Pcbnew,5.1.7*
G04 #@! TF.CreationDate,2020-10-09T10:19:24+01:00*
G04 #@! TF.ProjectId,Phaser,50686173-6572-42e6-9b69-6361645f7063,V2.0*
G04 #@! TF.SameCoordinates,Original*
G04 #@! TF.FileFunction,Soldermask,Top*
G04 #@! TF.FilePolarity,Negative*
%FSLAX46Y46*%
G04 Gerber Fmt 4.6, Leading zero omitted, Abs format (unit mm)*
G04 Created by KiCad (PCBNEW 5.1.7) date 2020-10-09 10:19:24*
%MOMM*%
%LPD*%
G01*
G04 APERTURE LIST*
%ADD10C,1.600000*%
%ADD11O,1.600000X1.600000*%
%ADD12C,3.166800*%
%ADD13C,2.340000*%
%ADD14R,1.600000X1.600000*%
%ADD15R,2.200000X2.200000*%
%ADD16O,2.200000X2.200000*%
%ADD17R,1.800000X1.800000*%
%ADD18C,1.800000*%
G04 APERTURE END LIST*
D10*
X66040000Y-114300000D03*
D11*
X73660000Y-114300000D03*
D12*
X88532140Y-96557600D03*
X88532140Y-92557600D03*
X88532140Y-88557600D03*
D13*
X75826620Y-63145080D03*
X80826620Y-63145080D03*
X85826620Y-63145080D03*
D10*
X65532000Y-73406000D03*
X65532000Y-68406000D03*
D14*
X127508000Y-70866000D03*
D10*
X124008000Y-70866000D03*
X140462000Y-72104000D03*
D14*
X140462000Y-70104000D03*
D10*
X83820000Y-44958000D03*
X83820000Y-49958000D03*
D14*
X133604000Y-70104000D03*
D10*
X133604000Y-72104000D03*
X158718000Y-69342000D03*
D14*
X156718000Y-69342000D03*
X156718000Y-75438000D03*
D10*
X158718000Y-75438000D03*
X108284000Y-98298000D03*
X113284000Y-98298000D03*
D14*
X146050000Y-77470000D03*
D10*
X146050000Y-80970000D03*
X191064000Y-80518000D03*
D14*
X194564000Y-80518000D03*
X111506000Y-76200000D03*
D10*
X109506000Y-76200000D03*
X109252000Y-68580000D03*
D14*
X111252000Y-68580000D03*
D10*
X115062000Y-101600000D03*
X120062000Y-101600000D03*
X114888000Y-111506000D03*
X119888000Y-111506000D03*
X139954000Y-98298000D03*
X139954000Y-103298000D03*
X175736000Y-48006000D03*
D14*
X173736000Y-48006000D03*
D10*
X139954000Y-90504000D03*
X139954000Y-95504000D03*
X110664000Y-114808000D03*
X105664000Y-114808000D03*
X135382000Y-80518000D03*
X130382000Y-80518000D03*
D14*
X101600000Y-69088000D03*
D10*
X99600000Y-69088000D03*
D15*
X129794000Y-55626000D03*
D16*
X129794000Y-45466000D03*
D11*
X80518000Y-52578000D03*
D14*
X80518000Y-60198000D03*
X80518000Y-50292000D03*
D11*
X80518000Y-42672000D03*
D17*
X159966620Y-89473700D03*
D18*
X162506620Y-89473700D03*
X104551440Y-89476240D03*
D17*
X102011440Y-89476240D03*
D15*
X155448000Y-96012000D03*
D16*
X155448000Y-106172000D03*
X151892000Y-96012000D03*
D15*
X151892000Y-106172000D03*
D17*
X130649100Y-109593380D03*
D18*
X133189100Y-109593380D03*
D17*
X172757660Y-109951180D03*
D18*
X175297660Y-109951180D03*
X177837660Y-109951180D03*
X91234700Y-109590840D03*
X88694700Y-109590840D03*
D17*
X86154700Y-109590840D03*
D18*
X104559100Y-95978980D03*
D17*
X102019100Y-95978980D03*
X75438000Y-96012000D03*
D18*
X77978000Y-96012000D03*
D17*
X185385320Y-95900380D03*
D18*
X187925320Y-95900380D03*
X162506660Y-96014540D03*
D17*
X159966660Y-96014540D03*
G36*
G01*
X128996000Y-41950001D02*
X128996000Y-40599999D01*
G75*
G02*
X129245999Y-40350000I249999J0D01*
G01*
X130596001Y-40350000D01*
G75*
G02*
X130846000Y-40599999I0J-249999D01*
G01*
X130846000Y-41950001D01*
G75*
G02*
X130596001Y-42200000I-249999J0D01*
G01*
X129245999Y-42200000D01*
G75*
G02*
X128996000Y-41950001I0J249999D01*
G01*
G37*
G36*
G01*
X73116000Y-42077001D02*
X73116000Y-40726999D01*
G75*
G02*
X73365999Y-40477000I249999J0D01*
G01*
X74716001Y-40477000D01*
G75*
G02*
X74966000Y-40726999I0J-249999D01*
G01*
X74966000Y-42077001D01*
G75*
G02*
X74716001Y-42327000I-249999J0D01*
G01*
X73365999Y-42327000D01*
G75*
G02*
X73116000Y-42077001I0J249999D01*
G01*
G37*
G36*
G01*
X76418000Y-42077001D02*
X76418000Y-40726999D01*
G75*
G02*
X76667999Y-40477000I249999J0D01*
G01*
X78018001Y-40477000D01*
G75*
G02*
X78268000Y-40726999I0J-249999D01*
G01*
X78268000Y-42077001D01*
G75*
G02*
X78018001Y-42327000I-249999J0D01*
G01*
X76667999Y-42327000D01*
G75*
G02*
X76418000Y-42077001I0J249999D01*
G01*
G37*
G36*
G01*
X169890000Y-119293001D02*
X169890000Y-117942999D01*
G75*
G02*
X170139999Y-117693000I249999J0D01*
G01*
X171490001Y-117693000D01*
G75*
G02*
X171740000Y-117942999I0J-249999D01*
G01*
X171740000Y-119293001D01*
G75*
G02*
X171490001Y-119543000I-249999J0D01*
G01*
X170139999Y-119543000D01*
G75*
G02*
X169890000Y-119293001I0J249999D01*
G01*
G37*
G36*
G01*
X180812000Y-41950001D02*
X180812000Y-40599999D01*
G75*
G02*
X181061999Y-40350000I249999J0D01*
G01*
X182412001Y-40350000D01*
G75*
G02*
X182662000Y-40599999I0J-249999D01*
G01*
X182662000Y-41950001D01*
G75*
G02*
X182412001Y-42200000I-249999J0D01*
G01*
X181061999Y-42200000D01*
G75*
G02*
X180812000Y-41950001I0J249999D01*
G01*
G37*
G36*
G01*
X177510000Y-41950001D02*
X177510000Y-40599999D01*
G75*
G02*
X177759999Y-40350000I249999J0D01*
G01*
X179110001Y-40350000D01*
G75*
G02*
X179360000Y-40599999I0J-249999D01*
G01*
X179360000Y-41950001D01*
G75*
G02*
X179110001Y-42200000I-249999J0D01*
G01*
X177759999Y-42200000D01*
G75*
G02*
X177510000Y-41950001I0J249999D01*
G01*
G37*
G36*
G01*
X164937000Y-41900001D02*
X164937000Y-40549999D01*
G75*
G02*
X165186999Y-40300000I249999J0D01*
G01*
X166537001Y-40300000D01*
G75*
G02*
X166787000Y-40549999I0J-249999D01*
G01*
X166787000Y-41900001D01*
G75*
G02*
X166537001Y-42150000I-249999J0D01*
G01*
X165186999Y-42150000D01*
G75*
G02*
X164937000Y-41900001I0J249999D01*
G01*
G37*
G36*
G01*
X161635000Y-41900001D02*
X161635000Y-40549999D01*
G75*
G02*
X161884999Y-40300000I249999J0D01*
G01*
X163235001Y-40300000D01*
G75*
G02*
X163485000Y-40549999I0J-249999D01*
G01*
X163485000Y-41900001D01*
G75*
G02*
X163235001Y-42150000I-249999J0D01*
G01*
X161884999Y-42150000D01*
G75*
G02*
X161635000Y-41900001I0J249999D01*
G01*
G37*
G36*
G01*
X173192000Y-119293001D02*
X173192000Y-117942999D01*
G75*
G02*
X173441999Y-117693000I249999J0D01*
G01*
X174792001Y-117693000D01*
G75*
G02*
X175042000Y-117942999I0J-249999D01*
G01*
X175042000Y-119293001D01*
G75*
G02*
X174792001Y-119543000I-249999J0D01*
G01*
X173441999Y-119543000D01*
G75*
G02*
X173192000Y-119293001I0J249999D01*
G01*
G37*
G36*
G01*
X176494000Y-119293001D02*
X176494000Y-117942999D01*
G75*
G02*
X176743999Y-117693000I249999J0D01*
G01*
X178094001Y-117693000D01*
G75*
G02*
X178344000Y-117942999I0J-249999D01*
G01*
X178344000Y-119293001D01*
G75*
G02*
X178094001Y-119543000I-249999J0D01*
G01*
X176743999Y-119543000D01*
G75*
G02*
X176494000Y-119293001I0J249999D01*
G01*
G37*
G36*
G01*
X137378000Y-119293001D02*
X137378000Y-117942999D01*
G75*
G02*
X137627999Y-117693000I249999J0D01*
G01*
X138978001Y-117693000D01*
G75*
G02*
X139228000Y-117942999I0J-249999D01*
G01*
X139228000Y-119293001D01*
G75*
G02*
X138978001Y-119543000I-249999J0D01*
G01*
X137627999Y-119543000D01*
G75*
G02*
X137378000Y-119293001I0J249999D01*
G01*
G37*
G36*
G01*
X108803000Y-41950001D02*
X108803000Y-40599999D01*
G75*
G02*
X109052999Y-40350000I249999J0D01*
G01*
X110403001Y-40350000D01*
G75*
G02*
X110653000Y-40599999I0J-249999D01*
G01*
X110653000Y-41950001D01*
G75*
G02*
X110403001Y-42200000I-249999J0D01*
G01*
X109052999Y-42200000D01*
G75*
G02*
X108803000Y-41950001I0J249999D01*
G01*
G37*
G36*
G01*
X140680000Y-119293001D02*
X140680000Y-117942999D01*
G75*
G02*
X140929999Y-117693000I249999J0D01*
G01*
X142280001Y-117693000D01*
G75*
G02*
X142530000Y-117942999I0J-249999D01*
G01*
X142530000Y-119293001D01*
G75*
G02*
X142280001Y-119543000I-249999J0D01*
G01*
X140929999Y-119543000D01*
G75*
G02*
X140680000Y-119293001I0J249999D01*
G01*
G37*
G36*
G01*
X144109000Y-119293001D02*
X144109000Y-117942999D01*
G75*
G02*
X144358999Y-117693000I249999J0D01*
G01*
X145709001Y-117693000D01*
G75*
G02*
X145959000Y-117942999I0J-249999D01*
G01*
X145959000Y-119293001D01*
G75*
G02*
X145709001Y-119543000I-249999J0D01*
G01*
X144358999Y-119543000D01*
G75*
G02*
X144109000Y-119293001I0J249999D01*
G01*
G37*
G36*
G01*
X112105000Y-41950001D02*
X112105000Y-40599999D01*
G75*
G02*
X112354999Y-40350000I249999J0D01*
G01*
X113705001Y-40350000D01*
G75*
G02*
X113955000Y-40599999I0J-249999D01*
G01*
X113955000Y-41950001D01*
G75*
G02*
X113705001Y-42200000I-249999J0D01*
G01*
X112354999Y-42200000D01*
G75*
G02*
X112105000Y-41950001I0J249999D01*
G01*
G37*
G36*
G01*
X189702000Y-119293001D02*
X189702000Y-117942999D01*
G75*
G02*
X189951999Y-117693000I249999J0D01*
G01*
X191302001Y-117693000D01*
G75*
G02*
X191552000Y-117942999I0J-249999D01*
G01*
X191552000Y-119293001D01*
G75*
G02*
X191302001Y-119543000I-249999J0D01*
G01*
X189951999Y-119543000D01*
G75*
G02*
X189702000Y-119293001I0J249999D01*
G01*
G37*
G36*
G01*
X193004000Y-119293001D02*
X193004000Y-117942999D01*
G75*
G02*
X193253999Y-117693000I249999J0D01*
G01*
X194604001Y-117693000D01*
G75*
G02*
X194854000Y-117942999I0J-249999D01*
G01*
X194854000Y-119293001D01*
G75*
G02*
X194604001Y-119543000I-249999J0D01*
G01*
X193253999Y-119543000D01*
G75*
G02*
X193004000Y-119293001I0J249999D01*
G01*
G37*
G36*
G01*
X196306000Y-119293001D02*
X196306000Y-117942999D01*
G75*
G02*
X196555999Y-117693000I249999J0D01*
G01*
X197906001Y-117693000D01*
G75*
G02*
X198156000Y-117942999I0J-249999D01*
G01*
X198156000Y-119293001D01*
G75*
G02*
X197906001Y-119543000I-249999J0D01*
G01*
X196555999Y-119543000D01*
G75*
G02*
X196306000Y-119293001I0J249999D01*
G01*
G37*
G36*
G01*
X86070000Y-42077001D02*
X86070000Y-40726999D01*
G75*
G02*
X86319999Y-40477000I249999J0D01*
G01*
X87670001Y-40477000D01*
G75*
G02*
X87920000Y-40726999I0J-249999D01*
G01*
X87920000Y-42077001D01*
G75*
G02*
X87670001Y-42327000I-249999J0D01*
G01*
X86319999Y-42327000D01*
G75*
G02*
X86070000Y-42077001I0J249999D01*
G01*
G37*
G36*
G01*
X89372000Y-42077001D02*
X89372000Y-40726999D01*
G75*
G02*
X89621999Y-40477000I249999J0D01*
G01*
X90972001Y-40477000D01*
G75*
G02*
X91222000Y-40726999I0J-249999D01*
G01*
X91222000Y-42077001D01*
G75*
G02*
X90972001Y-42327000I-249999J0D01*
G01*
X89621999Y-42327000D01*
G75*
G02*
X89372000Y-42077001I0J249999D01*
G01*
G37*
G36*
G01*
X132298000Y-41950001D02*
X132298000Y-40599999D01*
G75*
G02*
X132547999Y-40350000I249999J0D01*
G01*
X133898001Y-40350000D01*
G75*
G02*
X134148000Y-40599999I0J-249999D01*
G01*
X134148000Y-41950001D01*
G75*
G02*
X133898001Y-42200000I-249999J0D01*
G01*
X132547999Y-42200000D01*
G75*
G02*
X132298000Y-41950001I0J249999D01*
G01*
G37*
G36*
G01*
X64746700Y-119293001D02*
X64746700Y-117942999D01*
G75*
G02*
X64996699Y-117693000I249999J0D01*
G01*
X66346701Y-117693000D01*
G75*
G02*
X66596700Y-117942999I0J-249999D01*
G01*
X66596700Y-119293001D01*
G75*
G02*
X66346701Y-119543000I-249999J0D01*
G01*
X64996699Y-119543000D01*
G75*
G02*
X64746700Y-119293001I0J249999D01*
G01*
G37*
G36*
G01*
X68036000Y-119293001D02*
X68036000Y-117942999D01*
G75*
G02*
X68285999Y-117693000I249999J0D01*
G01*
X69636001Y-117693000D01*
G75*
G02*
X69886000Y-117942999I0J-249999D01*
G01*
X69886000Y-119293001D01*
G75*
G02*
X69636001Y-119543000I-249999J0D01*
G01*
X68285999Y-119543000D01*
G75*
G02*
X68036000Y-119293001I0J249999D01*
G01*
G37*
G36*
G01*
X71338000Y-119293001D02*
X71338000Y-117942999D01*
G75*
G02*
X71587999Y-117693000I249999J0D01*
G01*
X72938001Y-117693000D01*
G75*
G02*
X73188000Y-117942999I0J-249999D01*
G01*
X73188000Y-119293001D01*
G75*
G02*
X72938001Y-119543000I-249999J0D01*
G01*
X71587999Y-119543000D01*
G75*
G02*
X71338000Y-119293001I0J249999D01*
G01*
G37*
G36*
G01*
X74640000Y-119293001D02*
X74640000Y-117942999D01*
G75*
G02*
X74889999Y-117693000I249999J0D01*
G01*
X76240001Y-117693000D01*
G75*
G02*
X76490000Y-117942999I0J-249999D01*
G01*
X76490000Y-119293001D01*
G75*
G02*
X76240001Y-119543000I-249999J0D01*
G01*
X74889999Y-119543000D01*
G75*
G02*
X74640000Y-119293001I0J249999D01*
G01*
G37*
G36*
G01*
X77942000Y-119293001D02*
X77942000Y-117942999D01*
G75*
G02*
X78191999Y-117693000I249999J0D01*
G01*
X79542001Y-117693000D01*
G75*
G02*
X79792000Y-117942999I0J-249999D01*
G01*
X79792000Y-119293001D01*
G75*
G02*
X79542001Y-119543000I-249999J0D01*
G01*
X78191999Y-119543000D01*
G75*
G02*
X77942000Y-119293001I0J249999D01*
G01*
G37*
G36*
G01*
X81244000Y-119293001D02*
X81244000Y-117942999D01*
G75*
G02*
X81493999Y-117693000I249999J0D01*
G01*
X82844001Y-117693000D01*
G75*
G02*
X83094000Y-117942999I0J-249999D01*
G01*
X83094000Y-119293001D01*
G75*
G02*
X82844001Y-119543000I-249999J0D01*
G01*
X81493999Y-119543000D01*
G75*
G02*
X81244000Y-119293001I0J249999D01*
G01*
G37*
G36*
G01*
X186400000Y-119293001D02*
X186400000Y-117942999D01*
G75*
G02*
X186649999Y-117693000I249999J0D01*
G01*
X188000001Y-117693000D01*
G75*
G02*
X188250000Y-117942999I0J-249999D01*
G01*
X188250000Y-119293001D01*
G75*
G02*
X188000001Y-119543000I-249999J0D01*
G01*
X186649999Y-119543000D01*
G75*
G02*
X186400000Y-119293001I0J249999D01*
G01*
G37*
G36*
G01*
X183098000Y-119293001D02*
X183098000Y-117942999D01*
G75*
G02*
X183347999Y-117693000I249999J0D01*
G01*
X184698001Y-117693000D01*
G75*
G02*
X184948000Y-117942999I0J-249999D01*
G01*
X184948000Y-119293001D01*
G75*
G02*
X184698001Y-119543000I-249999J0D01*
G01*
X183347999Y-119543000D01*
G75*
G02*
X183098000Y-119293001I0J249999D01*
G01*
G37*
G36*
G01*
X179796000Y-119293001D02*
X179796000Y-117942999D01*
G75*
G02*
X180045999Y-117693000I249999J0D01*
G01*
X181396001Y-117693000D01*
G75*
G02*
X181646000Y-117942999I0J-249999D01*
G01*
X181646000Y-119293001D01*
G75*
G02*
X181396001Y-119543000I-249999J0D01*
G01*
X180045999Y-119543000D01*
G75*
G02*
X179796000Y-119293001I0J249999D01*
G01*
G37*
G36*
G01*
X127472000Y-119293001D02*
X127472000Y-117942999D01*
G75*
G02*
X127721999Y-117693000I249999J0D01*
G01*
X129072001Y-117693000D01*
G75*
G02*
X129322000Y-117942999I0J-249999D01*
G01*
X129322000Y-119293001D01*
G75*
G02*
X129072001Y-119543000I-249999J0D01*
G01*
X127721999Y-119543000D01*
G75*
G02*
X127472000Y-119293001I0J249999D01*
G01*
G37*
G36*
G01*
X130774000Y-119293001D02*
X130774000Y-117942999D01*
G75*
G02*
X131023999Y-117693000I249999J0D01*
G01*
X132374001Y-117693000D01*
G75*
G02*
X132624000Y-117942999I0J-249999D01*
G01*
X132624000Y-119293001D01*
G75*
G02*
X132374001Y-119543000I-249999J0D01*
G01*
X131023999Y-119543000D01*
G75*
G02*
X130774000Y-119293001I0J249999D01*
G01*
G37*
G36*
G01*
X134076000Y-119293001D02*
X134076000Y-117942999D01*
G75*
G02*
X134325999Y-117693000I249999J0D01*
G01*
X135676001Y-117693000D01*
G75*
G02*
X135926000Y-117942999I0J-249999D01*
G01*
X135926000Y-119293001D01*
G75*
G02*
X135676001Y-119543000I-249999J0D01*
G01*
X134325999Y-119543000D01*
G75*
G02*
X134076000Y-119293001I0J249999D01*
G01*
G37*
G36*
G01*
X117566000Y-119293001D02*
X117566000Y-117942999D01*
G75*
G02*
X117815999Y-117693000I249999J0D01*
G01*
X119166001Y-117693000D01*
G75*
G02*
X119416000Y-117942999I0J-249999D01*
G01*
X119416000Y-119293001D01*
G75*
G02*
X119166001Y-119543000I-249999J0D01*
G01*
X117815999Y-119543000D01*
G75*
G02*
X117566000Y-119293001I0J249999D01*
G01*
G37*
G36*
G01*
X120868000Y-119293001D02*
X120868000Y-117942999D01*
G75*
G02*
X121117999Y-117693000I249999J0D01*
G01*
X122468001Y-117693000D01*
G75*
G02*
X122718000Y-117942999I0J-249999D01*
G01*
X122718000Y-119293001D01*
G75*
G02*
X122468001Y-119543000I-249999J0D01*
G01*
X121117999Y-119543000D01*
G75*
G02*
X120868000Y-119293001I0J249999D01*
G01*
G37*
G36*
G01*
X124170000Y-119293001D02*
X124170000Y-117942999D01*
G75*
G02*
X124419999Y-117693000I249999J0D01*
G01*
X125770001Y-117693000D01*
G75*
G02*
X126020000Y-117942999I0J-249999D01*
G01*
X126020000Y-119293001D01*
G75*
G02*
X125770001Y-119543000I-249999J0D01*
G01*
X124419999Y-119543000D01*
G75*
G02*
X124170000Y-119293001I0J249999D01*
G01*
G37*
D10*
X133604000Y-55626000D03*
D11*
X133604000Y-48006000D03*
D10*
X73914000Y-59690000D03*
D11*
X73914000Y-52070000D03*
D10*
X133604000Y-58674000D03*
D11*
X133604000Y-66294000D03*
D10*
X130048000Y-66294000D03*
D11*
X130048000Y-58674000D03*
X141732000Y-47498000D03*
D10*
X141732000Y-55118000D03*
X150368000Y-47752000D03*
D11*
X150368000Y-55372000D03*
X83820000Y-52832000D03*
D10*
X83820000Y-60452000D03*
D11*
X162306000Y-68326000D03*
D10*
X162306000Y-75946000D03*
D11*
X153162000Y-69088000D03*
D10*
X153162000Y-76708000D03*
X108458000Y-87884000D03*
D11*
X108458000Y-95504000D03*
D10*
X129794000Y-75946000D03*
D11*
X137414000Y-75946000D03*
X108712000Y-111506000D03*
D10*
X101092000Y-111506000D03*
D11*
X112014000Y-87884000D03*
D10*
X112014000Y-95504000D03*
D11*
X113538000Y-104902000D03*
D10*
X121158000Y-104902000D03*
X180340000Y-67818000D03*
D11*
X187960000Y-67818000D03*
D10*
X75184000Y-111252000D03*
D11*
X82804000Y-111252000D03*
D10*
X190500000Y-67818000D03*
D11*
X198120000Y-67818000D03*
X187960000Y-71120000D03*
D10*
X180340000Y-71120000D03*
X113284000Y-114808000D03*
D11*
X120904000Y-114808000D03*
X113538000Y-108458000D03*
D10*
X121158000Y-108458000D03*
D11*
X190500000Y-71374000D03*
D10*
X198120000Y-71374000D03*
D11*
X180340000Y-74422000D03*
D10*
X187960000Y-74422000D03*
D11*
X138684000Y-106934000D03*
D10*
X146304000Y-106934000D03*
X182880000Y-111252000D03*
D11*
X190500000Y-111252000D03*
D10*
X169672000Y-53340000D03*
D11*
X177292000Y-53340000D03*
D10*
X138684000Y-110236000D03*
D11*
X146304000Y-110236000D03*
D10*
X92964000Y-82804000D03*
D11*
X100584000Y-82804000D03*
X169672000Y-56642000D03*
D10*
X177292000Y-56642000D03*
D11*
X82804000Y-82804000D03*
D10*
X90424000Y-82804000D03*
D11*
X139954000Y-87884000D03*
D10*
X139954000Y-80264000D03*
X80264000Y-82804000D03*
D11*
X72644000Y-82804000D03*
D10*
X177292000Y-59944000D03*
D11*
X169672000Y-59944000D03*
X165100000Y-110998000D03*
D10*
X157480000Y-110998000D03*
D11*
X172212000Y-85852000D03*
D10*
X164592000Y-85852000D03*
X180340000Y-85852000D03*
D11*
X187960000Y-85852000D03*
D10*
X69342000Y-75692000D03*
D11*
X69342000Y-68072000D03*
X151384000Y-84582000D03*
D10*
X159004000Y-84582000D03*
D11*
X76962000Y-68072000D03*
D10*
X76962000Y-75692000D03*
X73152000Y-75692000D03*
D11*
X73152000Y-68072000D03*
X138684000Y-113538000D03*
D10*
X146304000Y-113538000D03*
D11*
X190246000Y-115316000D03*
D10*
X197866000Y-115316000D03*
D11*
X80772000Y-68072000D03*
D10*
X80772000Y-75692000D03*
X84582000Y-68072000D03*
D11*
X84582000Y-75692000D03*
D10*
X129286000Y-83820000D03*
D11*
X136906000Y-83820000D03*
D10*
X101473000Y-107950000D03*
X104973000Y-107950000D03*
X78430000Y-107777280D03*
X74930000Y-107777280D03*
X184730000Y-108100000D03*
X188230000Y-108100000D03*
X162885000Y-107861100D03*
X159385000Y-107861100D03*
D13*
X188173080Y-63157360D03*
X183173080Y-63157360D03*
X178173080Y-63157360D03*
X157698200Y-63154820D03*
X162698200Y-63154820D03*
X167698200Y-63154820D03*
X116768760Y-63149740D03*
X121768760Y-63149740D03*
X126768760Y-63149740D03*
X106296420Y-63144660D03*
X101296420Y-63144660D03*
X96296420Y-63144660D03*
X147236020Y-63154820D03*
X142236020Y-63154820D03*
X137236020Y-63154820D03*
D12*
X146502560Y-96552520D03*
X146502560Y-92552520D03*
X146502560Y-88552520D03*
X117526240Y-88557600D03*
X117526240Y-92557600D03*
X117526240Y-96557600D03*
X175514000Y-96557600D03*
X175514000Y-92557600D03*
X175514000Y-88557600D03*
D11*
X135890000Y-88392000D03*
X128270000Y-103632000D03*
X135890000Y-90932000D03*
X128270000Y-101092000D03*
X135890000Y-93472000D03*
X128270000Y-98552000D03*
X135890000Y-96012000D03*
X128270000Y-96012000D03*
X135890000Y-98552000D03*
X128270000Y-93472000D03*
X135890000Y-101092000D03*
X128270000Y-90932000D03*
X135890000Y-103632000D03*
D14*
X128270000Y-88392000D03*
X167640000Y-67310000D03*
D11*
X175260000Y-82550000D03*
X167640000Y-69850000D03*
X175260000Y-80010000D03*
X167640000Y-72390000D03*
X175260000Y-77470000D03*
X167640000Y-74930000D03*
X175260000Y-74930000D03*
X167640000Y-77470000D03*
X175260000Y-72390000D03*
X167640000Y-80010000D03*
X175260000Y-69850000D03*
X167640000Y-82550000D03*
X175260000Y-67310000D03*
X104902000Y-47752000D03*
X97282000Y-55372000D03*
X104902000Y-50292000D03*
X97282000Y-52832000D03*
X104902000Y-52832000D03*
X97282000Y-50292000D03*
X104902000Y-55372000D03*
D14*
X97282000Y-47752000D03*
X185166000Y-52070000D03*
D11*
X192786000Y-59690000D03*
X185166000Y-54610000D03*
X192786000Y-57150000D03*
X185166000Y-57150000D03*
X192786000Y-54610000D03*
X185166000Y-59690000D03*
X192786000Y-52070000D03*
M02*
